<?xml version="1.0" encoding="UTF-8" standalone="no"?><!DOCTYPE svg PUBLIC "-//W3C//DTD SVG 1.1//EN" "http://www.w3.org/Graphics/SVG/1.1/DTD/svg11.dtd"><svg width="100%" height="100%" viewBox="0 0 1920 1200" version="1.1" xmlns="http://www.w3.org/2000/svg" xmlns:xlink="http://www.w3.org/1999/xlink" xml:space="preserve" xmlns:serif="http://www.serif.com/" style="fill-rule:evenodd;clip-rule:evenodd;stroke-linecap:round;stroke-linejoin:round;stroke-miterlimit:1.5;"><rect x="-793.937" y="-640.157" width="3507.87" height="2480.32" style="fill:#019ade;"/><g><g><path d="M454.644,606.139c0.47,-0.112 0.938,-0.259 1.4,-0.444c32.901,-13.11 72.719,-13.275 102.08,10.169l0.504,0.402l0,139.785l-221.349,-0.01l116.909,-149.793l0.456,-0.109Z" style="fill:#f2ce2e;"/><path d="M556.634,590.732c-23.835,-13.348 -51.505,-16.485 -77.941,-12.104l-3.387,0.561l83.322,-106.758l0,119.417l-1.994,-1.116Z" style="fill:#f6564a;stroke:#b4403b;stroke-width:1px;"/><path d="M874.756,717.236c0,-0 10.007,-71.306 12.474,-88.982c0.614,-4.376 -0.645,-8.809 -3.468,-12.209c-2.149,-2.575 -5.13,-4.34 -9.264,-4.34c-13.806,-0 -27.491,13.531 -36.696,25.149l-11.281,80.382l-25.797,-0l26.956,-192.082l25.798,0l-12.184,86.815c11.03,-10.771 26.314,-21.684 42.966,-21.684c12.324,0 19.725,7.523 24.197,16.673c3.832,7.923 5.222,16.806 3.991,25.52l-11.895,84.758l-25.797,-0Zm194.145,-81.461l-11.432,81.461l-25.798,-0l12.501,-89.078c-0.781,-7.188 -3.484,-16.557 -12.27,-16.557c-12.231,0 -24.748,12.481 -33.656,23.926l-11.466,81.709l-25.798,-0l17.605,-125.442l25.797,0l-2.631,18.746c10.698,-10.335 25.136,-20.393 40.81,-20.393c15.177,0 22.739,11.868 26.504,23.949c10.932,-11.449 26.869,-23.949 44.343,-23.949c12.17,0 19.443,7.631 23.79,16.883c3.307,7.041 4.492,14.893 3.411,22.596l-12.295,87.61l-25.798,-0c0,-0 9.76,-69.541 12.012,-85.739c0.476,-3.389 0.185,-6.842 -0.851,-10.104c-1.618,-5.212 -4.787,-9.792 -10.93,-9.792c-12.32,0 -24.929,12.662 -33.848,24.174Zm-367.668,-40.7l-4.286,30.537c-4.198,-5.055 -10.365,-9.523 -19.049,-9.523c-12.508,0 -23.308,13.465 -30.861,25.791l-10.576,75.356l-25.797,-0l17.487,-124.609l25.798,0l-2.577,18.358c8.665,-10.684 20.034,-20.736 32.925,-20.736c6.92,-0 12.5,1.995 16.936,4.826Zm95.475,-3.953l-2.436,25.113c-5.356,-1.468 -11.715,-2.501 -17.889,-2.501c-41.276,0 -50.485,33.87 -50.485,48.071c0,21.204 11.396,33.641 29.746,33.641c8.845,-0 21.866,-4.065 34.731,-15.689l-3.031,29.377c-12.551,8.456 -23.153,10.483 -35.588,10.483c-28.002,0 -53.217,-22.816 -53.217,-56.16c0,-23.145 12.394,-73.56 74.851,-73.56c9.458,-0 17.145,0.522 23.318,1.225Zm451.588,114.074c-14.527,9.179 -31.204,14.421 -43.318,14.421c-28.002,0 -53.217,-23.804 -53.217,-56.16c0,-24.448 15.075,-73.522 58.418,-73.522c47.357,-0 46.568,46.844 46.193,65.227l-77.248,-0c-0.315,2.323 -0.468,4.439 -0.468,6.237c-0,21.204 11.731,34.27 30.081,34.27c14.421,0 32.887,-10.563 42.439,-18.379l-2.88,27.906Zm-17.539,-68.595c-1.649,-13.127 -8.515,-23.354 -18.843,-23.354c-13.595,-0 -22.533,11.157 -27.685,23.354l46.528,0Zm253.702,68.595c-14.527,9.179 -31.204,14.421 -43.319,14.421c-28.001,0 -53.216,-23.804 -53.216,-56.16c-0,-24.448 15.075,-73.522 58.418,-73.522c47.357,-0 46.568,46.844 46.193,65.227l-77.248,-0c-0.315,2.323 -0.468,4.439 -0.468,6.237c-0,21.204 11.731,34.27 30.081,34.27c14.421,0 32.887,-10.563 42.439,-18.379l-2.88,27.906Zm-17.539,-68.595c-1.649,-13.127 -8.515,-23.354 -18.844,-23.354c-13.594,-0 -22.532,11.157 -27.684,23.354l46.528,0Zm37.557,37.491c8.71,9.134 23.285,21.883 40.484,21.883c6.95,-0 11.864,-4.405 11.864,-11.354c-0,-16.392 -43.369,-30.001 -43.369,-61.717c-0,-25.409 24.179,-33.866 37.782,-33.866c12.205,0 29.495,8.857 38.762,14.505l-3.793,27.025c-9.313,-8.388 -24.161,-17.224 -34.38,-17.224c-6.95,0 -12.336,1.919 -12.336,8.868c0,17.998 43.571,31.663 43.571,63.134c0,20.62 -17.123,34.792 -37.742,34.792c-15.652,0 -35.221,-11.181 -44.88,-17.284l4.037,-28.762Zm-137.789,-148.938l25.797,0l-27.025,192.574c-9.424,0.955 -20.008,1.545 -31.865,1.545c-39.618,-0 -65.994,-24.151 -65.994,-55.816c-0,-21.671 11.866,-73.56 74.85,-73.56c5.64,-0 10.649,0.185 15.083,0.484l9.154,-65.227Zm-23.906,170.348l11.354,-80.91c-2.842,-0.535 -5.893,-0.858 -9.132,-0.858c-41.275,0 -50.508,33.464 -50.508,47.665c-0,21.678 14.537,34.256 33.833,34.256c5.191,-0 10.225,-0.059 14.453,-0.153Zm-424.19,21.734l17.604,-125.442l25.798,0l-17.605,125.442l-25.797,-0Zm34.613,-170.408c9.08,-0 16.451,7.371 16.451,16.45c-0,9.08 -7.371,16.451 -16.451,16.451c-9.079,-0 -16.45,-7.371 -16.45,-16.451c-0,-9.079 7.371,-16.45 16.45,-16.45Zm-498.25,60.614l-115.977,148.599l-28.978,-0.004l243.116,-312.306l27.378,0l0,312.28l-23.205,0.043l-0,-139.144c-28.977,-23.136 -68.279,-22.909 -100.749,-9.97c-0.523,0.208 -1.053,0.375 -1.585,0.502Zm102.334,-17.879l-0,-113.24l-78.814,100.983c26.732,-4.43 54.71,-1.24 78.814,12.257Z" style="fill:#fff;"/></g></g></svg>